<?xml version="1.0" encoding="UTF-8"?>
<svg xmlns="http://www.w3.org/2000/svg" version="1.1" viewBox="0 0 1366 768">
  <defs>
    <style>
      .cls-1 {
        fill: #02bca5;
      }

      .cls-2 {
        fill: #313b45;
      }
    </style>
  </defs>
  <!-- Generator: Adobe Illustrator 28.6.0, SVG Export Plug-In . SVG Version: 1.2.0 Build 709)  -->
  <g>
    <g id="Camada_1">
      <g>
        <path class="cls-1" d="M442.7,349.7c-.3,18.8,1.8,36.2-4.4,52.8-10.8,28.9-31.3,46.9-61.2,54.2-7.7,1.9-15.7,2.1-23.6,2.1-11.7,0-23.3.6-34.9-.2-12.4-.8-24.3-4.3-35-10.8-20.2-12.2-33.5-29.6-39.1-52.7-1-4.3-1.7-8.7-1.7-13.1,0-29.3-.2-58.6,0-88,.2-25.8,20.4-47.8,48.2-48.2,33-.5,66-.7,98.9.1,15.2.4,30.1,6.2,40.6,19.5-4.8,4.4-9.5,8.8-14.2,13.1-7.6-9.8-18.3-13.4-30.1-13.5-31.2-.2-62.3-.5-93.5,0-20.4.3-30.9,12-30.9,32.3,0,26.2,0,52.3,0,78.5.1,32.5,20.2,56.7,52.2,62.5,5.8,1.1,12,.7,17.9.6,13.6-.3,27.3,1.2,40.9-1.1,23.9-3.9,45.3-24.9,49.9-49,1.2-6.1,1.4-12.2,1.8-18.3.1-2.1.3-4.3,1.7-5.5,5.5-4.4,10.2-9.7,16.5-15.3Z"/>
        <path class="cls-1" d="M457.7,297.7c.3,2.1-.6,3.8-1.8,5.4-1.6,2.1-3.3,4.2-5.1,6.1-31.5,31.4-62,63.8-94.1,94.6-.8.8-1.7,1.6-2.6,2.4-7.3,6.4-12.2,6.4-19.1-.2-15.7-15.4-31.5-30.7-47-46.3-7-7-4.5-16.4,4.5-18.5,4-.9,7.1,1,9.8,3.6,12.1,11.5,24.2,22.9,36.2,34.4,5.4,5.1,7.5,5.2,13,0,28.9-27.6,56.7-56.3,84.6-85,1.8-1.8,3.1-4.1,5.4-5.5,3.6-2.3,7.3-2.3,10.7-.3,3.4,2,5.9,4.9,5.5,9.4Z"/>
        <path class="cls-1" d="M360.2,315.1c-9.7,0-18,0-26.3,0-6.8,0-11.1-3.8-11.1-9.5,0-6,4.4-9.8,11.4-9.8,17.7,0,35.3,0,53,0,6.1,0,10.2,3.4,10.6,8.8.4,5.5-2.8,9.6-9,10.5-10,1.4-19.9-1.1-28.6-.1Z"/>
        <path class="cls-1" d="M295.5,317.2c-6.4,0-11.7-4.9-11.8-10.9,0-5.7,5.2-11,11.2-11.2,5.9-.2,11.7,5.2,11.8,11.1.1,5.7-5.2,10.9-11.2,11Z"/>
        <path class="cls-1" d="M487.2,522.5s0,0,0,0,0,0,0,0Z"/>
        <g>
          <path class="cls-2" d="M478.3,329.7v-17.2h93.8v17.2h-37.8v113.8h-18.2v-113.8h-37.8Z"/>
          <path class="cls-2" d="M539.2,448.5h-28.2v-113.8h-37.8v-27.2h103.8v27.2h-37.8v113.8ZM521.1,438.5h8.2v-113.8h37.8v-7.2h-83.8v7.2h37.8v113.8Z"/>
        </g>
        <g>
          <path class="cls-2" d="M599.6,372.7c4.5-15.9,18.2-24.3,32.6-24.3l.9,1.9-.9,16.7c-20.6,0-32.6,11.6-32.6,32.4v44.2h-16.8v-93.6h16.3l.6,22.8Z"/>
          <path class="cls-2" d="M604.6,448.5h-26.8v-103.6h26.2l.2,10c7-7.3,16.9-11.5,28-11.5h3.1l2.9,5.8-1.3,22.7h-4.7c-18,0-27.6,9.5-27.6,27.4v49.2ZM587.7,438.5h6.8v-39.2c0-2.5.2-4.9.5-7.2l-.9-37.2h-6.4v83.6ZM627.9,353.7c-10.3,1.4-18.6,7.8-22.4,17.3,5.5-5,12.9-8.1,22-8.8l.5-8.4Z"/>
        </g>
        <g>
          <path class="cls-2" d="M669.8,319c0,6.6-5.1,10.3-11,10.3s-10.9-3.7-10.9-10.3,5.1-10.3,10.9-10.3,11,3.7,11,10.3ZM650.3,443.5v-93.6h16.8v93.6h-16.8Z"/>
          <path class="cls-2" d="M672.1,448.5h-26.8v-103.6h26.8v103.6ZM655.3,438.5h6.8v-83.6h-6.8v83.6ZM658.7,334.3c-9.2,0-15.9-6.4-15.9-15.3s6.7-15.3,15.9-15.3,16,6.4,16,15.3-6.7,15.3-16,15.3ZM658.7,313.7c-1,0-5.9.3-5.9,5.3s4.9,5.3,5.9,5.3,6-.3,6-5.3-5-5.3-6-5.3Z"/>
        </g>
        <g>
          <path class="cls-2" d="M785.1,443.5h-16.5l-.4-19.5c-6.7,13.3-19.3,21.7-35.4,21.7-26.4,0-45.5-21.2-45.5-49s19.3-49,45.5-49,28.6,8.4,35.4,21.7l.4-19.5h16.5v93.6ZM704.2,396.7c0,19.3,12.9,33.1,32,33.1s32-13.7,32-33.1-13.1-33.3-32-33.3-32,14-32,33.3Z"/>
          <path class="cls-2" d="M732.9,450.7c-28.8,0-50.5-23.2-50.5-54s21.7-54,50.5-54,22.6,4.3,30.7,12l.2-9.8h26.4v103.6h-26.4l-.2-9.7c-8,7.7-18.7,11.9-30.7,11.9ZM732.9,352.7c-23.1,0-40.5,18.9-40.5,44s17,44,40.5,44,22.4-5.6,28.9-15.4c-6.4,6-15.2,9.5-25.5,9.5-21.8,0-37-15.7-37-38.1s15.6-38.3,37-38.3,19.2,3.7,25.7,10c-6.4-10-16.8-15.7-29-15.7ZM773.5,438.5h6.6v-83.6h-6.6l-.7,34.6-.3-.5c.4,2.5.7,5,.7,7.7s-.2,5.2-.6,7.6l.2-.5.7,34.6ZM736.2,368.4c-16.2,0-27,11.4-27,28.3s10.9,28.1,27,28.1,27-11.3,27-28.1-10.9-28.3-27-28.3Z"/>
        </g>
        <g>
          <path class="cls-2" d="M816.5,458.3l1.3-.7c10.9,6,22.5,9,35.8,9,21,0,32.8-10.7,32.8-29.2v-15.7c-6.6,13.7-19.3,21.7-35,21.7-27.1,0-45.9-20-45.9-47.9s18.7-47.7,45.9-47.7,28.5,8.2,35,21.7l.7-19.5h15.9v87.4c0,29.4-20.6,43.6-49.2,43.6s-27.3-3-37.1-7.5l-.2-15.2ZM822.5,395.4c0,19.3,12.4,32.9,32,32.9s31.8-13.9,31.8-32.9-13.1-32.6-31.8-32.6-32,13.5-32,32.6Z"/>
          <path class="cls-2" d="M853.8,485.9c-14.4,0-27.9-2.7-39.2-7.9l-2.9-1.3-.3-21.3,6.3-3.6,2.5,1.4c10.2,5.6,21.1,8.4,33.3,8.4s27.8-4.2,27.8-24.2v-.4c-7.8,7.4-18.2,11.4-30,11.4s-27.5-5.3-36.7-15.1c-9.1-9.6-14.1-23-14.1-37.9,0-30.6,21.4-52.7,50.9-52.7s22.6,4.4,30.6,12.1l.4-9.8h25.7v92.4c0,15.5-5.4,28.2-15.7,36.7-9.4,7.8-22.8,11.9-38.5,11.9ZM821.7,470.2c9.4,3.8,20.4,5.8,32.1,5.8,28.1,0,44.2-14.1,44.2-38.6v-82.4h-6.1l-1.3,32.7c.5,2.5.7,5.1.7,7.8s0,3.2-.2,4.7l.2-.5v37.7c0,21.4-14.1,34.2-37.8,34.2s-22.1-2.1-32-6.5v5.2ZM851.3,352.7c-24.1,0-40.9,17.6-40.9,42.7s16.8,42.9,40.9,42.9,21.2-4.9,27.4-13.7c-6.3,5.5-14.7,8.7-24.3,8.7-21.8,0-37-15.6-37-37.9s15.2-37.6,37-37.6,18,3.2,24.4,8.7c-6.3-8.9-16-13.8-27.5-13.8ZM854.5,367.8c-16.4,0-27,10.8-27,27.6s10.6,27.9,27,27.9,26.8-11.5,26.8-27.9-11-27.6-26.8-27.6Z"/>
        </g>
        <g>
          <path class="cls-2" d="M950.4,319c0,6.6-5.1,10.3-11,10.3s-10.9-3.7-10.9-10.3,5.1-10.3,10.9-10.3,11,3.7,11,10.3ZM930.9,443.5v-93.6h16.8v93.6h-16.8Z"/>
          <path class="cls-2" d="M952.8,448.5h-26.8v-103.6h26.8v103.6ZM935.9,438.5h6.8v-83.6h-6.8v83.6ZM939.3,334.3c-9.2,0-15.9-6.4-15.9-15.3s6.7-15.3,15.9-15.3,16,6.4,16,15.3-6.7,15.3-16,15.3ZM939.3,313.7c-1,0-5.9.3-5.9,5.3s4.9,5.3,5.9,5.3,6-.3,6-5.3-5-5.3-6-5.3Z"/>
        </g>
        <g>
          <path class="cls-2" d="M965.2,349.9h14.4v-7.1c0-27.7,11.2-38.4,38.9-38.4l1.7,15.2-.7.7c-17.8,0-23,3.9-23,22.1v7.5h23.2v15.9h-23.2v77.7h-16.8v-77.7h-14.4v-15.9Z"/>
          <path class="cls-2" d="M1001.4,448.5h-26.8v-77.7h-14.4v-25.9h14.4v-2.1c0-30.4,13.1-43.4,43.9-43.4h4.5l2.4,22-3.9,3.9h-2.1c-8.2,0-12.6.9-14.8,2.9-2.2,2.1-3.2,6.4-3.2,14.2v2.5h23.2v25.9h-23.2v77.7ZM984.6,438.5h6.8v-77.7h23.2v-5.9h-23.2v-12.5c0-18.9,5.8-26,23.3-27l-.7-5.9c-21.7,1-29.5,10.2-29.5,33.3v12.1h-14.4v5.9h14.4v77.7Z"/>
        </g>
        <g>
          <path class="cls-2" d="M1040.2,349.9l30.1,74.5,26.4-74.5h19.3l-38.2,97c-9.5,24.7-18.9,34.1-35.8,34.1s-12.2-.7-18.9-3.6l-1.1-15.7,1.3-.6c6.2,3.4,11,4.7,18.2,4.7s14-4.1,18.2-14l3-7.5-41.9-94.3h19.5Z"/>
          <path class="cls-2" d="M1042.1,485.9c-7.9,0-14.3-1.2-20.8-3.9l-2.8-1.2-1.6-22.3,6.8-2.9,2.1,1.2c5.5,3,9.6,4.1,15.8,4.1s10.6-3.9,13.5-11l2.2-5.5-44.2-99.4h30.5l26.5,65.4,23.2-65.4h30.2l-40.9,103.8c-8.9,23-18.7,37.2-40.4,37.2ZM1028,473.8c4.4,1.5,8.7,2.1,14.1,2.1,12.4,0,21.1-4.9,31.1-30.9l35.5-90.2h-8.4l-29.6,83.6-33.8-83.6h-8.4l39.7,89.2-3.8,9.4c-4.5,10.9-12.8,17.2-22.8,17.2s-9.6-.7-14-2.3l.4,5.3Z"/>
        </g>
      </g>
    </g>
  </g>
</svg>